<svg width="229" height="204" viewBox="0 0 229 204" fill="none" xmlns="http://www.w3.org/2000/svg">
<path d="M209.917 0H19.0833C8.54774 0 0 8.56641 0 19.125V146.625C0 157.184 8.54774 165.75 19.0833 165.75H95.4167L89.0556 184.875H60.4306C55.1429 184.875 50.8889 189.138 50.8889 194.438C50.8889 199.737 55.1429 204 60.4306 204H168.569C173.857 204 178.111 199.737 178.111 194.438C178.111 189.138 173.857 184.875 168.569 184.875H139.944L133.583 165.75H209.917C220.452 165.75 229 157.184 229 146.625V19.125C229 8.56641 220.452 0 209.917 0ZM203.556 140.25H25.4444V25.5H203.556V140.25Z" fill="black"/>
<rect x="25" y="25" width="179" height="116" fill="#c27472"/>
</svg>
