<svg width="243" height="199" viewBox="0 0 243 199" fill="none" xmlns="http://www.w3.org/2000/svg">
<rect x="20" y="11" width="205.233" height="133" fill="#CCCCCC"/>
<path d="M11.0835 33.2498C11.0835 27.393 13.4101 21.776 17.5516 17.6346C21.693 13.4931 27.31 11.1665 33.1668 11.1665H209.833C215.69 11.1665 221.307 13.4931 225.449 17.6346C229.59 21.776 231.917 27.393 231.917 33.2498V132.625C231.917 138.482 229.59 144.099 225.449 148.24C221.307 152.382 215.69 154.708 209.833 154.708H33.1668C27.31 154.708 21.693 152.382 17.5516 148.24C13.4101 144.099 11.0835 138.482 11.0835 132.625V33.2498Z" stroke="black" stroke-width="22.0833" stroke-linecap="round" stroke-linejoin="round"/>
<path d="M77.3335 187.833H165.667" stroke="black" stroke-width="22.0833" stroke-linecap="round" stroke-linejoin="round"/>
</svg>
