<svg width="129" height="205" viewBox="0 0 129 205" fill="none" xmlns="http://www.w3.org/2000/svg">
<path d="M102.938 12.8125C106.336 12.8125 109.594 14.1624 111.997 16.5652C114.4 18.968 115.75 22.2269 115.75 25.625V179.375C115.75 182.773 114.4 186.032 111.997 188.435C109.594 190.838 106.336 192.188 102.938 192.188H26.0625C22.6644 192.188 19.4055 190.838 17.0027 188.435C14.5999 186.032 13.25 182.773 13.25 179.375V25.625C13.25 22.2269 14.5999 18.968 17.0027 16.5652C19.4055 14.1624 22.6644 12.8125 26.0625 12.8125H102.938ZM26.0625 0C19.2663 0 12.7485 2.69977 7.94289 7.50539C3.13727 12.311 0.4375 18.8288 0.4375 25.625V179.375C0.4375 186.171 3.13727 192.689 7.94289 197.495C12.7485 202.3 19.2663 205 26.0625 205H102.938C109.734 205 116.251 202.3 121.057 197.495C125.863 192.689 128.562 186.171 128.562 179.375V25.625C128.562 18.8288 125.863 12.311 121.057 7.50539C116.251 2.69977 109.734 0 102.938 0L26.0625 0Z" fill="black"/>
<path fill-rule="evenodd" clip-rule="evenodd" d="M112.211 15.9143C109.784 13.4881 106.494 12.125 103.062 12.125H25.4375C22.0063 12.125 18.7156 13.4881 16.2893 15.9143C13.8631 18.3406 12.5 21.6313 12.5 25.0625V180.312C12.5 183.744 13.8631 187.034 16.2893 189.461C18.7156 191.887 22.0063 193.25 25.4375 193.25H103.062C106.494 193.25 109.784 191.887 112.211 189.461C114.637 187.034 116 183.744 116 180.312V25.0625C116 21.6313 114.637 18.3406 112.211 15.9143Z" fill="#becfab"/>
<path d="M64.5 179.375C67.8981 179.375 71.157 178.025 73.5598 175.622C75.9626 173.219 77.3125 169.961 77.3125 166.562C77.3125 163.164 75.9626 159.906 73.5598 157.503C71.157 155.1 67.8981 153.75 64.5 153.75C61.1019 153.75 57.843 155.1 55.4402 157.503C53.0374 159.906 51.6875 163.164 51.6875 166.562C51.6875 169.961 53.0374 173.219 55.4402 175.622C57.843 178.025 61.1019 179.375 64.5 179.375Z" fill="black"/>
</svg>
