<svg width="5" height="5" viewBox="0 0 5 5" fill="none" xmlns="http://www.w3.org/2000/svg">
<path d="M3.65392 0C3.22911 0 2.88469 0.344808 2.88469 0.769231C2.88469 1.28173 3.55777 1.98192 3.55777 2.68635H3.75008C3.75027 1.98192 4.42315 1.30192 4.42315 0.769231C4.42315 0.344808 4.07873 0 3.65392 0ZM3.65392 0.372692C3.70602 0.372718 3.75761 0.383004 3.80573 0.402965C3.85385 0.422926 3.89757 0.45217 3.9344 0.489028C3.97122 0.525886 4.00042 0.569635 4.02033 0.617778C4.04025 0.665922 4.05049 0.717516 4.05046 0.769615C4.05044 0.821715 4.04015 0.873299 4.02019 0.921423C4.00023 0.969547 3.97098 1.01327 3.93412 1.05009C3.89727 1.08691 3.85352 1.11611 3.80537 1.13603C3.75723 1.15594 3.70564 1.16618 3.65354 1.16615C3.54829 1.1661 3.44738 1.12425 3.37299 1.04979C3.29861 0.975334 3.25685 0.87438 3.2569 0.769135C3.25695 0.66389 3.29881 0.562975 3.37327 0.488592C3.44772 0.414209 3.54868 0.372449 3.65392 0.3725V0.372692ZM2.50008 0.384615C1.22758 0.384615 0.192383 1.41981 0.192383 2.69231C0.192383 3.96481 1.22758 5 2.50008 5C3.77258 5 4.80777 3.96481 4.80777 2.69231C4.80777 2.30577 4.712 1.94308 4.54335 1.6225C4.51777 1.67327 4.492 1.72154 4.46527 1.77288C4.41469 1.87058 4.36142 1.96923 4.31488 2.06731C4.36296 2.20481 4.39604 2.35019 4.41104 2.5H4.15873C4.14488 2.56442 4.13469 2.625 4.13469 2.68635V2.88462H4.41123C4.38514 3.15573 4.30106 3.41807 4.16469 3.65385H3.60008C3.64238 3.47346 3.66681 3.27404 3.68411 3.07096H3.30527C3.28735 3.26772 3.25326 3.46268 3.20334 3.65385H1.79681C1.73181 3.40216 1.69353 3.14433 1.68258 2.88462H3.17296V2.68635C3.17147 2.62356 3.16341 2.56111 3.14892 2.5H1.68277C1.69372 2.24029 1.73201 1.98246 1.797 1.73077H2.82469C2.75799 1.60481 2.69577 1.47652 2.63815 1.34615H1.92911C2.08815 0.983269 2.29834 0.769231 2.50008 0.769231C2.50008 0.635577 2.52411 0.51 2.56623 0.390577C2.54411 0.389808 2.52238 0.384615 2.50008 0.384615ZM1.70681 0.943462C1.63022 1.07137 1.56583 1.20619 1.5145 1.34615H1.12988C1.29577 1.17756 1.49135 1.04104 1.70681 0.943462ZM0.83546 1.73077H1.40008C1.34191 1.9834 1.30772 2.24095 1.29796 2.5H0.588921C0.614926 2.22886 0.699012 1.96651 0.83546 1.73077V1.73077ZM0.588921 2.88462H1.29815C1.3095 3.15865 1.34488 3.41731 1.40027 3.65385H0.83546C0.699177 3.41803 0.615104 3.15571 0.588921 2.88462ZM1.12988 4.03846H1.5145C1.56988 4.18769 1.63469 4.32173 1.70681 4.44115C1.49135 4.34358 1.29577 4.20706 1.12988 4.03846V4.03846ZM1.92911 4.03846H3.07104C2.912 4.40135 2.70181 4.61538 2.50008 4.61538C2.29834 4.61538 2.08796 4.40135 1.92911 4.03846ZM3.48565 4.03846H3.87027C3.70439 4.20706 3.5088 4.34358 3.29334 4.44115C3.36546 4.32192 3.43027 4.18788 3.48565 4.03846Z" fill="white"/>
</svg>
